# xmcd
#
# Track frame offsets:
#	150
#	22243
#	36380
#	54317
#	69888
#	103614
#	119445
#	130823
#	151194
#	164822
#	183424
#	202996
#	216722
#
# Disc length: 3235 seconds
#
# Revision: 1
# Processed by: cddbd v1.5.2PL0 Copyright (c) Steve Scherf et al.
# Submitted via: audiograbber 1.83.01
#
DISCID=c00ca10d
DTITLE=Blues66 - BLUESinschwarzrotgold
DYEAR=2010
DGENRE=
TTITLE0=Curry Wurst
TTITLE1=Ich lieb Dich
TTITLE2=1 Haus, 1 Kind, 1 Baum
TTITLE3=Blues Alltag
TTITLE4=Lebenskarussel
TTITLE5=Wieso
TTITLE6=No-no-Nokia
TTITLE7=Arbeitslosenblues
TTITLE8=Ich sags der ganzen Welt
TTITLE9=Was für ne Woche
TTITLE10=Was'n Wahnsinn
TTITLE11=Bye-Bye
TTITLE12=Alte Liebe
EXTD=
EXTT0=
EXTT1=
EXTT2=
EXTT3=
EXTT4=
EXTT5=
EXTT6=
EXTT7=
EXTT8=
EXTT9=
EXTT10=
EXTT11=
EXTT12=
PLAYORDER=
